<svg xmlns="http://www.w3.org/2000/svg" viewBox="0 0 512 512">
  <path fill="#FF4203" d="M0 80A80 80 0 0 1 80 0h352a80 80 0 0 1 80 80v352a80 80 0 0 1-80 80H80a80 80 0 0 1-80-80V80Z"/>
  <path fill="#fff" d="M170.34 123.17v283l-58.8 4.9V433c24.49-.76 58.8-1.81 90.16-1.81h188.37l9.74-93.72H376.7c-8.61 37.37-16.21 54.58-22.72 61.1-5.82 5.75-18.75 7.56-46.23 7.56h-33.59c-37.14 0-41.46-1.45-42.92-2.86-1.41-1.44-2.5-4.26-2.5-26.58V275.77h84.1l6.5 37.37h22v-99.8h-22l-6.5 37.73h-84.1v-127.9h114.41l9.05 51.36h23.04V79H352.2l-5.05 19.03H180.04c-14.03 0-37.18-.73-68.54-1.77v21.88l58.84 5.03Z"/>
</svg>
